<svg version="1.1" xmlns="http://www.w3.org/2000/svg" xmlns:xlink="http://www.w3.org/1999/xlink" width="1560" height="804"><defs/><g><path fill="none" stroke="#02063B" paint-order="fill stroke markers" d=" M 20 416.2546364348508 L 21 416.9640259111149 L 22 417.6729267674544 L 23 418.38131585614906 L 24 419.08917004618974 L 25 419.79646622403294 L 26 420.50318129435624 L 27 421.20929218081193 L 28 421.9147758267807 L 29 422.61960919612466 L 30 423.3237692739392 L 31 424.0272330673047 L 32 424.72997760603744 L 33 425.43197994343933 L 34 426.13321715704757 L 35 426.83366634938267 L 36 427.5333046486965 L 37 428.2321092097191 L 38 428.9300572144044 L 39 429.6271258726755 L 40 430.32329242316877 L 41 431.01853413397697 L 42 431.7128283033918 L 43 432.40615226064494 L 44 433.0984833666484 L 45 433.7897990147336 L 46 434.48007663138986 L 47 435.1692936770012 L 48 435.8574276465825 L 49 436.54445607051423 L 50 437.23035651527624 L 51 437.9151065841803 L 52 438.5986839181013 L 53 439.28106619620746 L 54 439.96223113668907 L 55 440.64215649748616 L 56 441.32082007701473 L 57 441.99819971489165 L 58 442.6742732926583 L 59 443.34901873450286 L 60 444.02241400798107 L 61 444.6944371247356 L 62 445.36506614121424 L 63 446.03427915938624 L 64 446.7020543274574 L 65 447.36836984058357 L 66 448.03320394158277 L 67 448.6965349216454 L 68 449.3583411210434 L 69 450.01860092983713 L 70 450.6772927885813 L 71 451.3343951890289 L 72 451.9898866748333 L 73 452.64374584224925 L 74 453.2959513408314 L 75 453.9464818741315 L 76 454.5953162003941 L 77 455.24243313324996 L 78 455.8878115424076 L 79 456.53143035434374 L 80 457.1732685529911 L 81 457.8133051804246 L 82 458.4515193375461 L 83 459.08789018476625 L 84 459.72239694268535 L 85 460.3550188927718 L 86 460.98573537803856 L 87 461.61452580371764 L 88 462.2413696379326 L 89 462.86624641236915 L 90 463.4891357229431 L 91 464.11001723046707 L 92 464.7288706613144 L 93 465.345675808081 L 94 465.96041253024555 L 95 466.5730607548267 L 96 467.18360047703914 L 97 467.79201176094597 L 98 468.3982747401104 L 99 469.0023696182442 L 100 469.60427666985396 L 101 470.2039762408853 L 102 470.80144874936474 L 103 471.396674686039 L 104 471.98963461501194 L 105 472.5803091743794 L 106 473.1686790768614 L 107 473.75472511043165 L 108 474.33842813894523 L 109 474.9197691027634 L 110 475.49872901937556 L 111 476.0752889840196 L 112 476.649430170299 L 113 477.2211338307974 L 114 477.79038129769094 L 115 478.3571539833579 L 116 478.9214333809854 L 117 479.4832010651738 L 118 480.04243869253844 L 119 480.5991280023086 L 120 481.1532508169235 L 121 481.7047890426263 L 122 482.25372467005457 L 123 482.8000397748284 L 124 483.3437165181357 L 125 483.8847371473148 L 126 484.4230839964341 L 127 484.95873948686886 L 128 485.491686127875 L 129 486.0219065171607 L 130 486.5493833414542 L 131 487.0740993770693 L 132 487.5960374904678 L 133 488.1151806388189 L 134 488.63151187055576 L 135 489.14501432592886 L 136 489.6556712375568 L 137 490.16346593097353 L 138 490.6683818251729 L 139 491.1704024331502 L 140 491.66951136244035 L 141 492.16569231565336 L 142 492.65892909100614 L 143 493.14920558285206 L 144 493.63650578220626 L 145 494.12081377726884 L 146 494.60211375394414 L 147 495.08038999635744 L 148 495.5556268873677 L 149 496.0278089090779 L 150 496.4969206433415 L 151 496.96294677226615 L 152 497.42587207871327 L 153 497.88568144679584 L 154 498.34235986237115 L 155 498.7958924135316 L 156 499.2462642910912 L 157 499.6934607890696 L 158 500.13746730517187 L 159 500.57826934126547 L 160 501.01585250385375 L 161 501.45020250454576 L 162 501.8813051605229 L 163 502.30914639500213 L 164 502.73371223769533 L 165 503.15498882526583 L 166 503.5729624017809 L 167 503.98761931916084 L 168 504.3989460376248 L 169 504.8069291261328 L 170 505.2115552628243 L 171 505.61281123545325 L 172 506.0106839418195 L 173 506.40516039019644 L 174 506.7962276997557 L 175 507.18387310098706 L 176 507.568083936116 L 177 507.9488476595168 L 178 508.326151838122 L 179 508.6999841518287 L 180 509.07033239390074 L 181 509.4371844713672 L 182 509.8005284054173 L 183 510.1603523317916 L 184 510.5166445011694 L 185 510.86939327955236 L 186 511.2185871486443 L 187 511.5642147062275 L 188 511.9062646665348 L 189 512.2447258606185 L 190 512.5795872367142 L 191 512.9108378606031 L 192 513.2384669159674 L 193 513.5624637047447 L 194 513.8828176474768 L 195 514.1995182836554 L 196 514.5125552720631 L 197 514.821918391112 L 198 515.1275975391766 L 199 515.4295827349242 L 200 515.7278641176405 L 201 516.0224319475517 L 202 516.3132766061427 L 203 516.6003885964708 L 204 516.8837585434762 L 205 517.1633771942878 L 206 517.4392354185255 L 207 517.7113242085984 L 208 517.9796346799988 L 209 518.244158071592 L 210 518.5048857459033 L 211 518.7618091893991 L 212 519.0149200127651 L 213 519.2642099511808 L 214 519.5096708645887 L 215 519.7512947379603 L 216 519.9890736815579 L 217 520.2229999311924 L 218 520.4530658484763 L 219 520.6792639210735 L 220 520.9015867629447 L 221 521.1200271145883 L 222 521.3345778432775 L 223 521.5452319432933 L 224 521.7519825361532 L 225 521.9548228708356 L 226 522.153746324001 L 227 522.348746400207 L 228 522.5398167321218 L 229 522.7269510807312 L 230 522.9101433355421 L 231 523.0893875147832 L 232 523.2646777655991 L 233 523.4360083642421 L 234 523.603373716259 L 235 523.7667683566734 L 236 523.9261869501648 L 237 524.0816242912423 L 238 524.2330753044146 L 239 524.3805350443558 L 240 524.5239986960673 L 241 524.6634615750344 L 242 524.7989191273796 L 243 524.930366930011 L 244 525.0578006907674 L 245 525.1812162485576 L 246 525.3006095734967 L 247 525.4159767670378 L 248 525.5273140620993 L 249 525.6346178231875 L 250 525.7378845465155 L 251 525.837110860118 L 252 525.9322935239608 L 253 526.0234294300471 L 254 526.1105156025187 L 255 526.1935491977531 L 256 526.2725275044568 L 257 526.3474479437531 L 258 526.418308069267 L 259 526.485105567205 L 260 526.54783825643 L 261 526.6065040885335 L 262 526.6611011479014 L 263 526.7116276517776 L 264 526.7580819503214 L 265 526.8004625266622 L 266 526.8387679969479 L 267 526.8729971103911 L 268 526.9031487493097 L 269 526.9292219291628 L 270 526.9512157985838 L 271 526.9691296394074 L 272 526.9829628666934 L 273 526.9927150287458 L 274 526.9983858071276 L 275 526.999975016671 L 276 526.9974826054836 L 277 526.9909086549501 L 278 526.9802533797293 L 279 526.965517127748 L 280 526.9467003801881 L 281 526.9238037514729 L 282 526.8968279892449 L 283 526.8657739743431 L 284 526.8306427207735 L 285 526.791435375676 L 286 526.7481532192867 L 287 526.7007976648968 L 288 526.6493702588058 L 289 526.5938726802715 L 290 526.5343067414549 L 291 526.4706743873606 L 292 526.4029776957744 L 293 526.3312188771945 L 294 526.2554002747595 L 295 526.1755243641721 L 296 526.0915937536183 L 297 526.0036111836821 L 298 525.9115795272556 L 299 525.8155017894463 L 300 525.7153811074777 L 301 525.6112207505877 L 302 525.5030241199215 L 303 525.390794748421 L 304 525.2745363007083 L 305 525.1542525729676 L 306 525.02994749282 L 307 524.901625119196 L 308 524.7692896422024 L 309 524.6329453829858 L 310 524.4925967935917 L 311 524.3482484568185 L 312 524.1999050860687 L 313 524.0475715251943 L 314 523.8912527483385 L 315 523.7309538597744 L 316 523.566680093737 L 317 523.3984368142529 L 318 523.2262295149656 L 319 523.050063818955 L 320 522.8699454785549 L 321 522.6858803751643 L 322 522.497874519056 L 323 522.3059340491801 L 324 522.1100652329635 L 325 521.9102744661051 L 326 521.7065682723673 L 327 521.4989533033629 L 328 521.2874363383378 L 329 521.0720242839494 L 330 520.8527241740418 L 331 520.6295431694152 L 332 520.4024885575931 L 333 520.1715677525831 L 334 519.936788294636 L 335 519.6981578499991 L 336 519.4556842106656 L 337 519.2093752941205 L 338 518.9592391430822 L 339 518.7052839252393 L 340 518.4475179329847 L 341 518.1859495831442 L 342 517.9205874167018 L 343 517.651440098521 L 344 517.3785164170619 L 345 517.1018252840938 L 346 516.8213757344047 L 347 516.5371769255058 L 348 516.2492381373332 L 349 515.9575687719441 L 350 515.6621783532103 L 351 515.3630765265067 L 352 515.0602730583973 L 353 514.7537778363153 L 354 514.4436008682408 L 355 514.1297522823735 L 356 513.8122423268028 L 357 513.4910813691724 L 358 513.1662798963424 L 359 512.8378485140461 L 360 512.5057979465444 L 361 512.1701390362754 L 362 511.8308827435 L 363 511.4880401459448 L 364 511.1416224384395 L 365 510.7916409325521 L 366 510.43810705621894 L 367 510.08103235337194 L 368 509.7204284835614 L 369 509.35630722157566 L 370 508.98868045705615 L 371 508.6175601941095 L 372 508.24295855091543 L 373 507.86488775933094 L 374 507.4833601644913 L 375 507.09838822440634 L 376 506.70998450955426 L 377 506.31816170247083 L 378 505.9229325973354 L 379 505.52431009955296 L 380 505.122307225333 L 381 504.7169371012641 L 382 504.30821296388586 L 383 503.8961481592562 L 384 503.4807561425158 L 385 503.0620504774488 L 386 502.6400448360396 L 387 502.2147529980267 L 388 501.78618885045285 L 389 501.3543663872113 L 390 500.919299708589 L 391 500.48100302080616 L 392 500.0394906355525 L 393 499.59477696951967 L 394 499.1468765439307 L 395 498.69580398406583 L 396 498.24157401878495 L 397 497.78420148004653 L 398 497.3237013024234 L 399 496.86008852261523 L 400 496.39337827895724 L 401 495.92358581092617 L 402 495.4507264586424 L 403 494.9748156623694 L 404 494.4958689620092 L 405 494.0139019965952 L 406 493.52893050378145 L 407 493.0409703193286 L 408 492.5500373765871 L 409 492.05614770597685 L 410 491.55931743446354 L 411 491.0595627850323 L 412 490.556900076158 L 413 490.051345721272 L 414 489.54291622822683 L 415 489.0316281987566 L 416 488.5174983279353 L 417 488.0005434036313 L 418 487.4807803059595 L 419 486.95822600673 L 420 486.43289756889385 L 421 485.90481214598606 L 422 485.3739869815653 L 423 484.84043940865104 L 424 484.3041868491574 L 425 483.76524681332444 L 426 483.22363689914624 L 427 482.67937479179636 L 428 482.1324782630503 L 429 481.5829651707054 L 430 481.03085345799747 L 431 480.4761611530149 L 432 479.9189063681104 L 433 479.3591072993089 L 434 478.79678222571397 L 435 478.2319495089107 L 436 477.6646275923662 L 437 477.09483500082735 L 438 476.52259033971586 L 439 475.9479122945209 L 440 475.37081963018875 L 441 474.7913311905102 L 442 474.2094658975054 L 443 473.62524275080557 L 444 473.038680827033 L 445 472.449799279178 L 446 471.85861733597346 L 447 471.26515430126705 L 448 470.66942955339084 L 449 470.0714625445286 L 450 469.47127280008044 L 451 468.86887991802575 L 452 468.26430356828234 L 453 467.6575634920653 L 454 467.0486795012415 L 455 466.437671477683 L 456 465.824559372618 L 457 465.2093632059792 L 458 464.5921030657498 L 459 463.97279910730833 L 460 463.35147155276974 L 461 462.72814069032546 L 462 462.102826873581 L 463 461.47555052089115 L 464 460.84633211469327 L 465 460.2151922008386 L 466 459.58215138792133 L 467 458.94723034660564 L 468 458.3104498089507 L 469 457.6718305677339 L 470 457.03139347577167 L 471 456.38915944523853 L 472 455.7451494469847 L 473 455.09938450985084 L 474 454.45188571998153 L 475 453.8026742201369 L 476 453.15177120900216 L 477 452.4991979404954 L 478 451.8449757230733 L 479 451.18912591903603 L 480 450.5316699438291 L 481 449.8726292653443 L 482 449.21202540321866 L 483 448.549879928132 L 484 447.88621446110193 L 485 447.22105067277886 L 486 446.5544102827375 L 487 445.886315058768 L 488 445.21678681616544 L 489 444.5458474170169 L 490 443.87351876948816 L 491 443.19982282710777 L 492 442.5247815880509 L 493 441.8484170944204 L 494 441.1707514315275 L 495 440.4918067271702 L 496 439.8116051509113 L 497 439.13016891335405 L 498 438.44752026541704 L 499 437.76368149760776 L 500 437.0786749392946 L 501 436.3925229579778 L 502 435.70524795855897 L 503 435.0168723826098 L 504 434.32741870763886 L 505 433.63690944635795 L 506 432.94536714594693 L 507 432.25281438731747 L 508 431.5592737843756 L 509 430.8647679832835 L 510 430.1693196617199 L 511 429.4729515281396 L 512 428.7756863210321 L 513 428.07754680817885 L 514 427.3785557859101 L 515 426.6787360783605 L 516 425.97811053672353 L 517 425.2767020385056 L 518 424.5745334867791 L 519 423.87162780943436 L 520 423.16800795843096 L 521 422.4636969090485 L 522 421.7587176591363 L 523 421.05309322836223 L 524 420.34684665746136 L 525 419.6400010074834 L 526 418.93257935903995 L 527 418.2246048115504 L 528 417.5161004824883 L 529 416.8070895066258 L 530 416.09759503527863 L 531 415.3876402355503 L 532 414.67724828957523 L 533 413.966442393762 L 534 413.25524575803587 L 535 412.543681605081 L 536 411.83177316958194 L 537 411.1195436974652 L 538 410.40701644514 L 539 409.6942146787392 L 540 408.98116167335894 L 541 408.2678807122995 L 542 407.55439508630434 L 543 406.84072809279985 L 544 406.12690303513466 L 545 405.4129432218187 L 546 404.698871965762 L 547 403.98471258351356 L 548 403.27048839450003 L 549 402.556222720264 L 550 401.8419388837028 L 551 401.12766020830696 L 552 400.4134100173982 L 553 399.6992116333683 L 554 398.98508837691736 L 555 398.2710635662924 L 556 397.55716051652576 L 557 396.843402538674 L 558 396.1298129390567 L 559 395.41641501849534 L 560 394.70323207155246 L 561 393.99028738577124 L 562 393.2776042409147 L 563 392.5652059082059 L 564 391.8531156495678 L 565 391.1413567168642 L 566 390.4299523511397 L 567 389.7189257818614 L 568 389.0083002261603 L 569 388.298098888073 L 570 387.5883449577841 L 571 386.87906161086914 L 572 386.1702720075377 L 573 385.461999291877 L 574 384.75426659109667 L 575 384.04709701477276 L 576 383.340513654094 L 577 382.63453958110745 L 578 381.92919784796493 L 579 381.22451148617057 L 580 380.5205035058287 L 581 379.8171968948925 L 582 379.11461461841316 L 583 378.4127796177904 L 584 377.7117148100232 L 585 377.0114430869612 L 586 376.31198731455777 L 587 375.6133703321229 L 588 374.91561495157754 L 589 374.2187439567089 L 590 373.52278010242634 L 591 372.82774611401834 L 592 372.1336646864105 L 593 371.4405584834245 L 594 370.7484501370382 L 595 370.0573622466461 L 596 369.36731737832207 L 597 368.67833806408214 L 598 367.9904468011488 L 599 367.30366605121645 L 600 366.618018239718 L 601 365.9335257550925 L 602 365.250210948054 L 603 364.5680961308622 L 604 363.88720357659327 L 605 363.207555518413 L 606 362.52917414885064 L 607 361.8520816190744 L 608 361.1763000381678 L 609 360.50185147240825 L 610 359.82875794454606 L 611 359.1570414330856 L 612 358.4867238715676 L 613 357.817827147853 L 614 357.1503731034078 L 615 356.4843835325905 L 616 355.81988018194033 L 617 355.15688474946677 L 618 354.4954188839413 L 619 353.83550418419065 L 620 353.17716219839116 L 621 352.52041442336554 L 622 351.8652823038808 L 623 351.2117872319479 L 624 350.5599505461234 L 625 349.9097935308125 L 626 349.2613374155744 L 627 348.61460337442867 L 628 347.969612525164 L 629 347.32638592864885 L 630 346.6849445881434 L 631 346.0453094486142 L 632 345.4075013960498 L 633 344.7715412567787 L 634 344.13744979678984 L 635 343.5052477210542 L 636 342.8749556728487 L 637 342.24659423308213 L 638 341.6201839196233 L 639 340.99574518663076 L 640 340.3732984238853 L 641 339.75286395612375 L 642 339.1344620423758 L 643 338.51811287530194 L 644 337.9038365805345 L 645 337.2916532160205 L 646 336.68158277136627 L 647 336.0736451671852 L 648 335.46786025444715 L 649 334.86424781383005 L 650 334.26282755507435 L 651 333.6636191163391 L 652 333.06664206356095 L 653 332.471915889815 L 654 331.8794600146786 L 655 331.28929378359715 L 656 330.7014364672522 L 657 330.11590726093254 L 658 329.53272528390715 L 659 328.95190957880095 L 660 328.37347911097316 L 661 327.7974527678979 L 662 327.2238493585473 L 663 326.65268761277775 L 664 326.08398618071794 L 665 325.51776363216015 L 666 324.95403845595337 L 667 324.3928290594003 L 668 323.83415376765595 L 669 323.27803082312903 L 670 322.7244783848868 L 671 322.1735145280618 L 672 321.6251572432614 L 673 321.079424435981 L 674 320.5363339260189 L 675 319.99590344689454 L 676 319.45815064526937 L 677 318.92309308037073 L 678 318.3907482234186 L 679 317.8611334570548 L 680 317.3342660747757 L 681 316.81016328036736 L 682 316.2888421873439 L 683 315.7703198183885 L 684 315.2546131047978 L 685 314.74173888592884 L 686 314.23171390864934 L 687 313.7245548267907 L 688 313.2202782006046 L 689 312.71890049622164 L 690 312.22043808511415 L 691 311.7249072435616 L 692 311.2323241521187 L 693 310.74270489508757 L 694 310.2560654599923 L 695 309.77242173705696 L 696 309.29178951868664 L 697 308.81418449895193 L 698 308.3396222730763 L 699 307.86811833692695 L 700 307.39968808650895 L 701 306.93434681746237 L 702 306.47210972456264 L 703 306.01299190122506 L 704 305.5570083390109 L 705 305.10417392713913 L 706 304.65450345199906 L 707 304.20801159666837 L 708 303.7647129404334 L 709 303.3246219583127 L 710 302.88775302058514 L 711 302.4541203923199 L 712 302.0237382329114 L 713 301.5966205956163 L 714 301.17278142709495 L 715 300.75223456695613 L 716 300.33499374730474 L 717 299.92107259229385 L 718 299.5104846176794 L 719 299.1032432303793 L 720 298.6993617280352 L 721 298.29885329857865 L 722 297.9017310198004 L 723 297.5080078589232 L 724 297.1176966721785 L 725 296.7308102043868 L 726 296.3473610885412 L 727 295.9673618453951 L 728 295.5908248830532 L 729 295.21776249656665 L 730 294.8481868675311 L 731 294.4821100636896 L 732 294.11954403853764 L 733 293.76050063093385 L 734 293.40499156471253 L 735 293.05302844830146 L 736 292.7046227743426 L 737 292.3597859193167 L 738 292.0185291431722 L 739 291.6808635889571 L 740 291.3468002824553 L 741 291.0163501318269 L 742 290.68952392725146 L 743 290.36633234057604 L 744 290.0467859249665 L 745 289.7308951145632 L 746 289.4186702241401 L 747 289.1101214487678 L 748 288.8052588634811 L 749 288.5040924229493 L 750 288.2066319611522 L 751 287.91288719105773 L 752 287.622867704306 L 753 287.3365829708951 L 754 287.05404233887265 L 755 286.77525503403007 L 756 286.50023015960153 L 757 286.2289766959666 L 758 285.9615035003572 L 759 285.6978193065682 L 760 285.4379327246723 L 761 285.18185224073875 L 762 284.9295862165567 L 763 284.6811428893615 L 764 284.4365303715664 L 765 284.1957566504972 L 766 283.95882958813127 L 767 283.7257569208418 L 768 283.49654625914394 L 769 283.27120508744713 L 770 283.0497407638105 L 771 282.8321605197024 L 772 282.61847145976463 L 773 282.40868056158 L 774 282.2027946754451 L 775 282.0008205241459 L 776 281.80276470273895 L 777 281.6086336783354 L 778 281.4184337898903 L 779 281.2321712479953 L 780 281.04985213467603 L 781 280.87148240319357 L 782 280.69706787784963 L 783 280.52661425379705 L 784 280.36012709685326 L 785 280.19761184331884 L 786 280.0390737997998 L 787 279.8845181430345 L 788 279.7339499197246 L 789 279.58737404637003 L 790 279.4447953091089 L 791 279.30621836356056 L 792 279.17164773467437 L 793 279.04108781658124 L 794 278.9145428724506 L 795 278.79201703435115 L 796 278.67351430311544 L 797 278.5590385482101 L 798 278.4485935076087 L 799 278.3421827876701 L 800 278.2398098630206 L 801 278.1414780764404 L 802 278.04719063875484 L 803 277.95695062872875 L 804 277.8707609929669 L 805 277.78862454581696 L 806 277.7105439692781 L 807 277.6365218129132 L 808 277.5665604937658 L 809 277.5006622962808 L 810 277.4388293722302 L 811 277.38106374064284 L 812 277.32736728773835 L 813 277.2777417668654 L 814 277.2321887984448 L 815 277.19070986991636 L 816 277.15330633569044 L 817 277.11997941710354 L 818 277.0907302023786 L 819 277.06555964658946 L 820 277.04446857162964 L 821 277.02745766618534 L 822 277.01452748571324 L 823 277.0056784524221 L 824 277.00091085525924 L 825 277.0002248499008 L 826 277.0036204587469 L 827 277.0110975709209 L 828 277.0226559422729 L 829 277.0382951953875 L 830 277.0580148195968 L 831 277.0818141709963 L 832 277.10969247246663 L 833 277.1416488136982 L 834 277.17768215122163 L 835 277.21779130844124 L 836 277.26197497567387 L 837 277.31023171019143 L 838 277.3625599362681 L 839 277.41895794523185 L 840 277.4794238955199 L 841 277.54395581273934 L 842 277.6125515897313 L 843 277.6852089866397 L 844 277.76192563098454 L 845 277.8426990177394 L 846 277.92752650941316 L 847 278.0164053361359 L 848 278.10933259574995 L 849 278.206305253904 L 850 278.3073201441525 L 851 278.41237396805906 L 852 278.521463295304 L 853 278.63458456379664 L 854 278.7517340797912 L 855 278.8729080180079 L 856 278.9981024217574 L 857 279.1273132030703 L 858 279.2605361428306 L 859 279.39776689091315 L 860 279.53900096632634 L 861 279.6842337573577 L 862 279.83346052172493 L 863 279.98667638673055 L 864 280.1438763494213 L 865 280.30505527675103 L 866 280.4702079057487 L 867 280.6393288436901 L 868 280.8124125682739 L 869 280.989453427802 L 870 281.17044564136415 L 871 281.3553832990266 L 872 281.54426036202506 L 873 281.7370706629621 L 874 281.93380790600827 L 875 282.1344656671077 L 876 282.33903739418815 L 877 282.5475164073747 L 878 282.75989589920783 L 879 282.97616893486594 L 880 283.1963284523914 L 881 283.4203672629218 L 882 283.64827805092386 L 883 283.88005337443303 L 884 284.11568566529604 L 885 284.35516722941816 L 886 284.5984902470145 L 887 284.8456467728654 L 888 285.0966287365755 L 889 285.3514279428378 L 890 285.61003607170073 L 891 285.87244467884034 L 892 286.1386451958355 L 893 286.40862893044823 L 894 286.682387066907 L 895 286.9599106661949 L 896 287.24119066634165 L 897 287.52621788271904 L 898 287.8149830083413 L 899 288.1074766141688 L 900 288.40368914941587 L 901 288.7036109418628 L 902 289.0072321981715 L 903 289.31454300420563 L 904 289.62553332535384 L 905 289.9401930068578 L 906 290.2585117741435 L 907 290.58047923315723 L 908 290.90608487070426 L 909 291.23531805479286 L 910 291.5681680349809 L 911 291.904623942727 L 912 292.2446747917461 L 913 292.5883094783668 L 914 292.9355167818954 L 915 293.2862853649814 L 916 293.6406037739879 L 917 293.9984604393657 L 918 294.35984367603095 L 919 294.7247416837469 L 920 295.0931425475089 L 921 295.4650342379337 L 922 295.84040461165233 L 923 296.2192414117062 L 924 296.6015322679479 L 925 296.9872646974445 L 926 297.3764261048858 L 927 297.769003782995 L 928 298.164984912944 L 929 298.5643565647721 L 930 298.9671056978075 L 931 299.37321916109414 L 932 299.7826836938201 L 933 300.19548592575154 L 934 300.6116123776684 L 935 301.03104946180514 L 936 301.4537834822944 L 937 301.8798006356138 L 938 302.3090870110369 L 939 302.74162859108776 L 940 303.1774112519979 L 941 303.6164207641683 L 942 304.05864279263335 L 943 304.50406289752954 L 944 304.9526665345663 L 945 305.4044390555016 L 946 305.8593657086197 L 947 306.3174316392132 L 948 306.77862189006805 L 949 307.2429214019515 L 950 307.7103150141046 L 951 308.1807874647365 L 952 308.65432339152346 L 953 309.1309073321097 L 954 309.61052372461313 L 955 310.09315690813304 L 956 310.57879112326117 L 957 311.0674105125971 L 958 311.5589991212653 L 959 312.05354089743656 L 960 312.5510196928519 L 961 313.05141926334994 L 962 313.55472326939747 L 963 314.0609152766225 L 964 314.5699787563516 L 965 315.0818970861488 L 966 315.5966535503591 L 967 316.11423134065404 L 968 316.6346135565802 L 969 317.1577832061115 L 970 317.6837232062037 L 971 318.2124163833528 L 972 318.74384547415474 L 973 319.2779931258703 L 974 319.814841896991 L 975 320.3543742578087 L 976 320.89657259098806 L 977 321.44141919214195 L 978 321.9888962704094 L 979 322.5389859490363 L 980 323.0916702659598 L 981 323.6469311743941 L 982 324.20475054342006 L 983 324.76511015857733 L 984 325.3279917224587 L 985 325.8933768553082 L 986 326.46124709562054 L 987 327.0315839007445 L 988 327.60436864748834 L 989 328.17958263272726 L 990 328.75720707401507 L 991 329.33722311019676 L 992 329.91961180202475 L 993 330.5043541327772 L 994 331.0914310088789 L 995 331.68082326052496 L 996 332.27251164230626 L 997 332.8664768338386 L 998 333.46269944039284 L 999 334.0611599935287 L 1000 334.6618389517305 L 1001 335.26471670104445 L 1002 335.8697735557204 L 1003 336.47698975885334 L 1004 337.08634548302956 L 1005 337.6978208309732 L 1006 338.3113958361968 L 1007 338.92705046365273 L 1008 339.5447646103872 L 1009 340.1645181061975 L 1010 340.7862907142896 L 1011 341.41006213194 L 1012 342.03581199115746 L 1013 342.66351985934944 L 1014 343.2931652399882 L 1015 343.92472757328034 L 1016 344.55818623683865 L 1017 345.19352054635476 L 1018 345.8307097562751 L 1019 346.469733060478 L 1020 347.110569592953 L 1021 347.75319842848285 L 1022 348.39759858332553 L 1023 349.04374901590086 L 1024 349.6916286274765 L 1025 350.3412162628574 L 1026 350.9924907110766 L 1027 351.64543070608727 L 1028 352.30001492745805 L 1029 352.9562220010683 L 1030 353.61403049980663 L 1031 354.27341894427013 L 1032 354.9343658034664 L 1033 355.5968494955158 L 1034 356.2608483883566 L 1035 356.9263408004514 L 1036 357.5933050014947 L 1037 358.261719213123 L 1038 358.93156160962536 L 1039 359.6028103186567 L 1040 360.2754434219514 L 1041 360.9494389560392 L 1042 361.62477491296283 L 1043 362.3014292409956 L 1044 362.9793798453627 L 1045 363.6586045889617 L 1046 364.33908129308566 L 1047 365.0207877381479 L 1048 365.70370166440625 L 1049 366.38780077269155 L 1050 367.07306272513426 L 1051 367.75946514589486 L 1052 368.4469856218942 L 1053 369.1356017035449 L 1054 369.82529090548536 L 1055 370.5160307073129 L 1056 371.20779855432 L 1057 371.9005718582301 L 1058 372.59432799793575 L 1059 373.289044320237 L 1060 373.98469814058075 L 1061 374.6812667438022 L 1062 375.3787273848659 L 1063 376.0770572896088 L 1064 376.7762336554839 L 1065 377.4762336523045 L 1066 378.17703442299023 L 1067 378.8786130843127 L 1068 379.58094672764344 L 1069 380.2840124197012 L 1070 380.9877872033014 L 1071 381.6922480981057 L 1072 382.39737210137173 L 1073 383.10313618870504 L 1074 383.8095173148102 L 1075 384.51649241424406 L 1076 385.224038402168 L 1077 385.9321321751025 L 1078 386.64075061168126 L 1079 387.34987057340584 L 1080 388.059468905402 L 1081 388.7695224371747 L 1082 389.4800079833659 L 1083 390.1909023445104 L 1084 390.90218230779436 L 1085 391.613824647813 L 1086 392.3258061273283 L 1087 393.03810349802893 L 1088 393.75069350128837 L 1089 394.46355286892503 L 1090 395.17665832396176 L 1091 395.8899865813856 L 1092 396.6035143489089 L 1093 397.317218327729 L 1094 398.03107521328974 L 1095 398.74506169604183 L 1096 399.45915446220437 L 1097 400.1733301945262 L 1098 400.88756557304663 L 1099 401.60183727585775 L 1100 402.3161219798652 L 1101 403.0303963615505 L 1102 403.74463709773175 L 1103 404.45882086632605 L 1104 405.1729243471106 L 1105 405.8869242224841 L 1106 406.6007971782284 L 1107 407.3145199042694 L 1108 408.0280690954389 L 1109 408.7414214522347 L 1110 409.45455368158207 L 1111 410.1674424975941 L 1112 410.8800646223318 L 1113 411.59239678656485 L 1114 412.30441573053054 L 1115 413.01609820469406 L 1116 413.7274209705073 L 1117 414.4383608011675 L 1118 415.14889448237625 L 1119 415.8589988130966 L 1120 416.5686506063117 L 1121 417.27782668978097 L 1122 417.98650390679734 L 1123 418.6946591169435 L 1124 419.4022691968466 L 1125 420.1093110409345 L 1126 420.81576156218915 L 1127 421.5215976929015 L 1128 422.22679638542354 L 1129 422.9313346129221 L 1130 423.63518937012986 L 1131 424.3383376740968 L 1132 425.04075656494086 L 1133 425.74242310659724 L 1134 426.443314387568 L 1135 427.1434075216693 L 1136 427.8426796487794 L 1137 428.541107935585 L 1138 429.2386695763263 L 1139 429.9353417935426 L 1140 430.63110183881497 L 1141 431.32592699351 L 1142 432.0197945695212 L 1143 432.7126819100096 L 1144 433.40456639014417 L 1145 434.09542541784 L 1146 434.78523643449637 L 1147 435.4739769157332 L 1148 436.16162437212654 L 1149 436.84815634994317 L 1150 437.53355043187315 L 1151 438.2177842377627 L 1152 438.90083542534404 L 1153 439.5826816909658 L 1154 440.2633007703205 L 1155 440.9426704391722 L 1156 441.6207685140821 L 1157 442.29757285313224 L 1158 442.9730613566494 L 1159 443.64721196792595 L 1160 444.3200026739408 L 1161 444.9914115060774 L 1162 445.66141654084186 L 1163 446.32999590057835 L 1164 446.99712775418334 L 1165 447.662790317819 L 1166 448.32696185562384 L 1167 448.9896206804231 L 1168 449.6507451544366 L 1169 450.3103136899849 L 1170 450.9683047501951 L 1171 451.624696849703 L 1172 452.27946855535583 L 1173 452.9325984869109 L 1174 453.58406531773466 L 1175 454.2338477754989 L 1176 454.8819246428746 L 1177 455.5282747582261 L 1178 456.1728770163006 L 1179 456.8157103689187 L 1180 457.45675382566037 L 1181 458.09598645455156 L 1182 458.73338738274686 L 1183 459.3689357972113 L 1184 460.00261094540014 L 1185 460.6343921359362 L 1186 461.2642587392858 L 1187 461.89219018843204 L 1188 462.51816597954667 L 1189 463.14216567265964 L 1190 463.76416889232604 L 1191 464.384155328292 L 1192 465.0021047361575 L 1193 465.61799693803755 L 1194 466.23181182322134 L 1195 466.8435293488281 L 1196 467.45312954046256 L 1197 468.06059249286636 L 1198 468.66589837056864 L 1199 469.26902740853313 L 1200 469.8699599128041 L 1201 470.4686762611492 L 1202 471.06515690369986 L 1203 471.65938236359034 L 1204 472.25133323759286 L 1205 472.84099019675216 L 1206 473.4283339870156 L 1207 474.01334542986274 L 1208 474.59600542293117 L 1209 475.1762949406401 L 1210 475.754195034812 L 1211 476.3296868352911 L 1212 476.9027515505595 L 1213 477.4733704683508 L 1214 478.0415249562613 L 1215 478.60719646235833 L 1216 479.17036651578564 L 1217 479.7310167273672 L 1218 480.289128790207 L 1219 480.8446844802873 L 1220 481.3976656570636 L 1221 481.9480542640567 L 1222 482.4958323294427 L 1223 483.0409819666395 L 1224 483.5834853748911 L 1225 484.12332483984864 L 1226 484.660482734149 L 1227 485.19494151799046 L 1228 485.72668373970487 L 1229 486.25569203632836 L 1230 486.78194913416746 L 1231 487.30543784936384 L 1232 487.8261410884548 L 1233 488.34404184893197 L 1234 488.8591232197962 L 1235 489.3713683821095 L 1236 489.8807606095449 L 1237 490.3872832689319 L 1238 490.8909198208004 L 1239 491.3916538199197 L 1240 491.8894689158365 L 1241 492.38434885340826 L 1242 492.87627747333386 L 1243 493.3652387126819 L 1244 493.8512166054143 L 1245 494.3341952829086 L 1246 494.8141589744752 L 1247 495.29109200787303 L 1248 495.76497880982095 L 1249 496.2358039065062 L 1250 496.70355192409 L 1251 497.1682075892092 L 1252 497.6297557294752 L 1253 498.0881812739695 L 1254 498.54346925373517 L 1255 498.9956048022666 L 1256 499.44457315599414 L 1257 499.89035965476654 L 1258 500.33294974232956 L 1259 500.7723289668013 L 1260 501.20848298114413 L 1261 501.64139754363305 L 1262 502.0710585183208 L 1263 502.4974518754994 L 1264 502.92056369215834 L 1265 503.3403801524393 L 1266 503.75688754808687 L 1267 504.1700722788966 L 1268 504.57992085315885 L 1269 504.9864198880996 L 1270 505.38955611031685 L 1271 505.78931635621484 L 1272 506.18568757243327 L 1273 506.5786568162738 L 1274 506.96821125612246 L 1275 507.354338171869 L 1276 507.7370249553219 L 1277 508.11625911062015 L 1278 508.4920282546413 L 1279 508.864320117406 L 1280 509.2331225424782 L 1281 509.5984234873627 L 1282 509.9602110238976 L 1283 510.3184733386447 L 1284 510.6731987332744 L 1285 511.0243756249481 L 1286 511.3719925466967 L 1287 511.71603814779417 L 1288 512.0565011941293 L 1289 512.3933705685714 L 1290 512.7266352713342 L 1291 513.0562844203347 L 1292 513.382307251548 L 1293 513.70469311936 L 1294 514.0234314969135 L 1295 514.3385119764533 L 1296 514.6499242696652 L 1297 514.957658208012 L 1298 515.2617037430662 L 1299 515.5620509468371 L 1300 515.858690012096 L 1301 516.1516112526953 L 1302 516.4408051038862 L 1303 516.7262621226297 L 1304 517.0079729879056 L 1305 517.285928501017 L 1306 517.5601195858901 L 1307 517.8305372893709 L 1308 518.0971727815178 L 1309 518.3600173558892 L 1310 518.6190624298285 L 1311 518.8742995447443 L 1312 519.125720366386 L 1313 519.3733166851164 L 1314 519.6170804161798 L 1315 519.8570035999658 L 1316 520.0930784022693 L 1317 520.3252971145463 L 1318 520.5536521541655 L 1319 520.7781360646565 L 1320 520.9987415159519 L 1321 521.2154613046283 L 1322 521.4282883541402 L 1323 521.6372157150521 L 1324 521.8422365652644 L 1325 522.0433442102371 L 1326 522.2405320832079 L 1327 522.4337937454063 L 1328 522.6231228862649 L 1329 522.8085133236243 L 1330 522.9899590039358 L 1331 523.1674540024586 L 1332 523.3409925234533 L 1333 523.5105689003715 L 1334 523.6761775960404 L 1335 523.8378132028439 L 1336 523.9954704428989 L 1337 524.1491441682278 L 1338 524.298829360927 L 1339 524.4445211333298 L 1340 524.5862147281669 L 1341 524.723905518721 L 1342 524.857589008979 L 1343 524.9872608337771 L 1344 525.1129167589451 L 1345 525.2345526814435 L 1346 525.3521646294977 L 1347 525.4657487627281 L 1348 525.5753013722754 L 1349 525.6808188809208 L 1350 525.7822978432043 L 1351 525.8797349455363 L 1352 525.9731270063054 L 1353 526.0624709759834 L 1354 526.1477639372241 L 1355 526.2290031049589 L 1356 526.3061858264874 L 1357 526.3793095815644 L 1358 526.4483719824818 L 1359 526.5133707741471 L 1360 526.5743038341565 L 1361 526.6311691728644 L 1362 526.6839649334486 L 1363 526.7326893919703 L 1364 526.7773409574315 L 1365 526.8179181718256 L 1366 526.854419710186 L 1367 526.8868443806291 L 1368 526.9151911243928 L 1369 526.9394590158719 L 1370 526.9596472626474 L 1371 526.9757552055131 L 1372 526.9877823184969 L 1373 526.9957282088777 L 1374 526.9995926171986 L 1375 526.9993754172751 L 1376 526.9950766161995 L 1377 526.9866963543406 L 1378 526.9742349053384 L 1379 526.9576926760967 L 1380 526.9370702067683 L 1381 526.9123681707381 L 1382 526.883587374601 L 1383 526.8507287581356 L 1384 526.8137933942733 L 1385 526.7727824890635 L 1386 526.7276973816342 L 1387 526.6785395441483 L 1388 526.6253105817552 L 1389 526.5680122325386 L 1390 526.5066463674602 L 1391 526.4412149902977 L 1392 526.37172023758 L 1393 526.2981643785175 L 1394 526.2205498149276 L 1395 526.1388790811565 L 1396 526.0531548439963 L 1397 525.9633799025983 L 1398 525.869557188381 L 1399 525.7716897649351 L 1400 525.6697808279228 L 1401 525.5638337049736 L 1402 525.4538518555764 L 1403 525.3398388709651 L 1404 525.2217984740028 L 1405 525.0997345190591 L 1406 524.9736509918852 L 1407 524.8435520094828 L 1408 524.7094418199704 L 1409 524.5713248024445 L 1410 524.429205466836 L 1411 524.283088453764 L 1412 524.1329785343828 L 1413 523.978880610228 L 1414 523.8207997130544 L 1415 523.6587410046734 L 1416 523.4927097767834 L 1417 523.3227114507977 L 1418 523.1487515776666 L 1419 522.9708358376975 L 1420 522.7889700403678 L 1421 522.6031601241364 L 1422 522.4134121562494 L 1423 522.219732332542 L 1424 522.0221269772361 L 1425 521.8206025427338 L 1426 521.6151656094071 L 1427 521.4058228853823 L 1428 521.1925812063218 L 1429 520.9754475352 L 1430 520.754428962077 L 1431 520.5295327038657 L 1432 520.3007661040979 L 1433 520.0681366326827 L 1434 519.831651885664 L 1435 519.5913195849716 L 1436 519.3471475781695 L 1437 519.0991438381996 L 1438 518.847316463121 L 1439 518.5916736758462 L 1440 518.3322238238719 L 1441 518.068975379007 L 1442 517.8019369370958 L 1443 517.531117217737 L 1444 517.2565250639996 L 1445 516.9781694421333 L 1446 516.6960594412769 L 1447 516.4102042731604 L 1448 516.1206132718045 L 1449 515.8272958932163 L 1450 515.53026171508 L 1451 515.2295204364444 L 1452 514.9250818774063 L 1453 514.6169559787895 L 1454 514.3051528018204 L 1455 513.9896825277995 L 1456 513.670555457769 L 1457 513.3477820121764 L 1458 513.0213727305338 L 1459 512.6913382710748 L 1460 512.3576894104052 L 1461 512.0204370431522 L 1462 511.67959218160814 L 1463 511.33516595537066 L 1464 510.9871696109798 L 1465 510.63561451155067 L 1466 510.28051213640225 L 1467 509.9218740806825 L 1468 509.55971205499003 L 1469 509.1940378849913 L 1470 508.82486351103506 L 1471 508.4522009877619 L 1472 508.07606248371087 L 1473 507.69646028092217 L 1474 507.3134067745359 L 1475 506.9269144723878 L 1476 506.5369959946004 L 1477 506.1436640731707 L 1478 505.74693155155535 L 1479 505.34681138425015 L 1480 504.94331663636814 L 1481 504.536460483212 L 1482 504.12625620984454 L 1483 503.71271721065443 L 1484 503.29585698891935 L 1485 502.87568915636456 L 1486 502.4522274327187 L 1487 502.0254856452657 L 1488 501.5954777283932 L 1489 501.1622177231381 L 1490 500.7257197767273 L 1491 500.28599814211617 L 1492 499.84306717752304 L 1493 499.3969413459604 L 1494 498.9476352147629 L 1495 498.4951634551112 L 1496 498.03954084155305 L 1497 497.58078225152093 L 1498 497.1189026648468 L 1499 496.6539171632718 L 1500 496.1858409299547 L 1501 495.71468924897584 L 1502 495.2404775048378 L 1503 494.763221181964 L 1504 494.2829358641917 L 1505 493.7996372342642 L 1506 493.3133410733182 L 1507 492.82406326036875 L 1508 492.33181977179106 L 1509 491.83662668079796 L 1510 491.33850015691576 L 1511 490.83745646545617 L 1512 490.33351196698476 L 1513 489.82668311678765 L 1514 489.3169864643332 L 1515 488.80443865273196 L 1516 488.2890564181935 L 1517 487.7708565894799 L 1518 487.2498560873557 L 1519 486.72607192403586 L 1520 486.19952120263025 L 1521 485.67022111658486 L 1522 485.13818894912106 L 1523 484.6034420726704 L 1524 484.0659979483079 L 1525 483.52587412518164 L 1526 482.98308823993966 L 1527 482.43765801615496 L 1528 481.88960126374536 L 1529 481.3389358783928 L 1530 480.7856798409589 L 1531 480.2298512168976 L 1532 479.67146815566605 L 1533 479.1105488901306 L 1534 478.54711173597263 L 1535 477.9811750910897 L 1536 477.4127574349959 L 1537 476.841877328217 L 1538 476.2685534116854 L 1539 475.6928044061311" stroke-linecap="round" stroke-linejoin="round" stroke-miterlimit="10" stroke-width="16"/></g></svg>